<?xml version="1.0" encoding="utf-8"?>
<svg width="32" height="32" viewBox="0 0 32 32" xmlns="http://www.w3.org/2000/svg">
  <defs/>
  <path fill="#130829" d="M 29.69 14.88 L 28.605 10.067 L 26.121 6.34 L 21.098 2.962 L 15.008 2 L 10.703 2.962 L 9.321 3.925 L 5.821 6.532 L 5.068 7.46 L 3.388 9.962 L 2.075 13.463 L 1.953 17.75 L 2.74 20.55 L 4.14 23.508 L 5.558 25.502 L 10.213 28.635 L 11.403 29.108 L 17.966 30 L 24.161 27.48 L 27.433 24.19 L 29.078 20.375 L 29.953 16.682 L 29.69 14.88 Z M 11.648 27.025 L 10.493 26.255 L 11.683 26.518 L 11.648 27.025 Z M 14.815 4.065 L 14.815 5.028 L 11.928 5.028 L 14.815 4.065 Z M 23.373 7.792 L 23.916 10.452 L 21.553 7.898 L 23.373 7.792 Z M 23.373 6.76 L 23.951 7.163 L 23.776 7.163 L 23.373 6.76 Z M 26.453 10.96 L 24.703 11.135 L 24.143 8.475 L 26.453 10.96 Z M 24.336 7.775 L 24.703 7.775 L 25.403 8.982 L 24.336 7.775 Z M 26.768 11.555 L 26.19 16.805 L 24.843 11.782 L 26.768 11.555 Z M 24.266 12.01 L 25.77 17.593 L 21.588 14.25 L 24.266 12.01 Z M 18.876 25.468 L 16.653 24.19 L 20.153 22.108 L 18.876 25.468 Z M 19.243 26.203 L 21.483 26.01 L 18.771 27.323 L 19.243 26.203 Z M 8.166 11.905 L 10.09 16.001 L 6.765 16.001 L 8.166 11.905 Z M 7.885 10.75 L 5.785 10.838 L 8.411 8.72 L 7.885 10.75 Z M 15.043 19.168 L 17.161 15.563 L 20.083 20.813 L 15.043 19.168 Z M 20.013 21.477 L 16.215 23.735 L 15.06 19.833 L 20.013 21.477 Z M 14.5 18.887 L 11.298 16.543 L 16.548 15.405 L 14.5 18.887 Z M 18.771 9.14 L 16.163 6.095 L 20.31 7.74 L 18.771 9.14 Z M 18.771 10.418 L 20.521 13.917 L 17.703 14.547 L 18.771 10.418 Z M 17.02 14.372 L 12.733 10.207 L 18.316 9.928 L 17.02 14.372 Z M 16.548 14.776 L 10.983 16.001 L 12.191 10.557 L 16.548 14.776 Z M 11.928 9.525 L 9.583 7.985 L 14.203 6.025 L 11.928 9.525 Z M 10.476 15.423 L 8.568 11.275 L 11.596 10.382 L 10.476 15.423 Z M 10.231 16.7 L 9.618 22.055 L 6.835 16.648 L 10.231 16.7 Z M 10.825 16.963 L 14.08 19.36 L 10.195 22.405 L 10.825 16.963 Z M 14.413 19.867 L 15.585 23.805 L 10.528 23 L 14.413 19.867 Z M 15.952 24.558 L 17.896 25.66 L 13.345 25.887 L 15.952 24.558 Z M 17.703 15.178 L 20.818 14.583 L 20.538 20.305 L 17.703 15.178 Z M 19.453 10.103 L 23.898 11.573 L 21.203 13.708 L 19.453 10.103 Z M 21.466 14.828 L 25.84 18.328 L 21.168 20.83 L 21.466 14.828 Z M 21.203 7.25 L 20.958 5.255 L 22.953 7.25 L 21.203 7.25 Z M 23.461 10.75 L 19.348 9.455 L 20.87 8.073 L 23.461 10.75 Z M 16.285 5.5 L 20.223 4.87 L 20.503 7.25 L 16.285 5.5 Z M 15.428 4.975 L 15.428 3.995 L 18.508 4.485 L 15.428 4.975 Z M 18.105 9.315 L 12.61 9.595 L 15.148 5.85 L 18.105 9.315 Z M 13.573 5.64 L 9.513 7.39 L 10.248 5.64 L 13.573 5.64 Z M 11.281 9.822 L 8.568 10.627 L 9.128 8.422 L 11.281 9.822 Z M 8.708 7.653 L 7.378 7.915 L 9.268 6.375 L 8.708 7.653 Z M 7.763 8.475 L 5.768 10.085 L 6.433 8.737 L 7.763 8.475 Z M 7.536 11.415 L 4.928 15.23 L 5.156 11.52 L 7.536 11.415 Z M 5.908 20.427 L 4.613 19.815 L 4.753 17.75 L 5.908 20.427 Z M 5.015 16.648 L 6.03 16.648 L 6.136 19.343 L 5.015 16.648 Z M 6.206 21.25 L 6.345 23 L 5.033 20.672 L 6.206 21.25 Z M 6.118 16.001 L 5.138 16.001 L 7.098 13.147 L 6.118 16.001 Z M 8.953 22.248 L 6.73 20.865 L 6.696 17.75 L 8.953 22.248 Z M 7.203 21.915 L 9.321 23.228 L 8.848 24.75 L 7.203 21.915 Z M 8.148 24.75 L 7.063 24.155 L 6.923 22.405 L 8.148 24.75 Z M 9.898 23.718 L 11.315 25.747 L 9.338 25.293 L 9.898 23.718 Z M 10.493 23.473 L 15.095 24.295 L 12.12 25.817 L 10.493 23.473 Z M 12.243 26.622 L 15.131 27.41 L 12.208 27.235 L 12.243 26.622 Z M 13.94 26.5 L 18.561 26.255 L 17.983 27.602 L 13.94 26.5 Z M 20.363 25.502 L 23.951 23.42 L 22.953 25.275 L 20.363 25.502 Z M 19.627 25.223 L 20.94 21.722 L 23.951 22.632 L 19.627 25.223 Z M 21.553 21.25 L 25.736 19.01 L 24.545 22.142 L 21.553 21.25 Z M 24.86 23 L 25.508 23.297 L 24.108 24.4 L 24.86 23 Z M 25.263 22.493 L 26.645 21.162 L 25.928 22.807 L 25.263 22.493 Z M 25.508 21.407 L 26.453 19.01 L 27.153 19.85 L 25.508 21.407 Z M 26.68 18.38 L 27.591 16.63 L 27.31 19.132 L 26.68 18.38 Z M 26.803 16.805 L 27.24 12.937 L 27.748 14.967 L 26.803 16.805 Z M 3.931 16.63 L 3.931 15.527 L 4.176 16.28 L 3.931 16.63 Z M 4.158 17.33 L 4.158 18.24 L 3.983 17.645 L 4.158 17.33 Z M 4.035 13.83 L 4.455 12.92 L 4.333 14.67 L 4.035 13.83 Z"/>
</svg>