<?xml version="1.0" encoding="UTF-8"?>
<svg viewBox="0 0 211.867 48" width="211.867px" height="48px" xmlns="http://www.w3.org/2000/svg">
  <g>
    <path d="M 1.25 39.817 L 8.012 39.817 L 8.012 29.559 L 15.464 29.559 C 22.318 29.559 27.378 25.143 27.378 18.887 C 27.378 12.631 22.318 8.215 15.464 8.215 L 1.25 8.215 Z M 8.012 23.349 L 8.012 14.425 L 14.728 14.425 C 18.086 14.425 20.386 16.173 20.386 18.887 C 20.386 21.601 18.086 23.349 14.728 23.349 Z" style="fill: rgb(29, 29, 31);"/>
    <path d="M 41.109 40.369 C 48.147 40.369 54.035 34.665 54.035 27.903 C 54.035 21.141 48.147 15.483 41.109 15.483 C 34.025 15.483 28.091 21.141 28.091 27.903 C 28.091 34.665 34.025 40.369 41.109 40.369 Z M 41.109 34.711 C 37.521 34.711 34.531 31.583 34.531 27.903 C 34.531 24.223 37.521 21.141 41.109 21.141 C 44.651 21.141 47.641 24.223 47.641 27.903 C 47.641 31.583 44.651 34.711 41.109 34.711 Z" style="fill: rgb(29, 29, 31);"/>
    <path d="M 61.464 39.817 L 67.49 39.817 L 71.952 24.867 L 76.368 39.817 L 82.394 39.817 L 90.49 16.035 L 83.912 16.035 L 79.404 30.847 L 74.712 16.035 L 69.146 16.035 L 64.454 30.847 L 59.946 16.035 L 53.368 16.035 Z" style="fill: rgb(29, 29, 31);"/>
    <path d="M 102.29 34.435 C 99.484 34.435 97.414 32.687 96.632 30.111 L 113.79 30.111 C 113.79 21.141 109.42 15.483 101.968 15.483 C 95.022 15.483 89.732 20.681 89.732 27.857 C 89.732 35.171 95.252 40.369 102.336 40.369 C 105.832 40.369 109.926 38.897 112.042 36.689 L 107.764 32.319 C 106.476 33.561 104.176 34.435 102.29 34.435 Z M 102.244 21.417 C 104.958 21.417 106.706 22.935 107.35 25.281 L 96.724 25.281 C 97.598 22.889 99.714 21.417 102.244 21.417 Z" style="fill: rgb(29, 29, 31);"/>
    <path d="M 123.06 20.451 L 123.06 16.035 L 116.344 16.035 L 116.344 39.817 L 123.06 39.817 L 123.06 28.455 C 123.06 23.993 126.234 21.141 131.202 21.141 L 131.202 15.483 C 127.568 15.483 124.624 17.369 123.06 20.451 Z" style="fill: rgb(29, 29, 31);"/>
    <path d="M 157.584 14.333 L 157.584 8.215 L 133.25 8.215 L 133.25 39.817 L 140.058 39.817 L 140.058 27.305 L 155.928 27.305 L 155.928 21.187 L 140.058 21.187 L 140.058 14.333 Z" style="fill: rgb(29, 29, 31);"/>
    <path d="M 171.915 40.369 C 178.953 40.369 184.841 34.665 184.841 27.903 C 184.841 21.141 178.953 15.483 171.915 15.483 C 164.831 15.483 158.897 21.141 158.897 27.903 C 158.897 34.665 164.831 40.369 171.915 40.369 Z M 171.915 34.711 C 168.327 34.711 165.337 31.583 165.337 27.903 C 165.337 24.223 168.327 21.141 171.915 21.141 C 175.457 21.141 178.447 24.223 178.447 27.903 C 178.447 31.583 175.457 34.711 171.915 34.711 Z" style="fill: rgb(29, 29, 31);"/>
    <path d="M 209.797 39.817 L 201.057 27.581 L 209.383 16.035 L 202.299 16.035 L 197.515 22.659 L 192.777 16.035 L 185.509 16.035 L 193.881 27.719 L 185.141 39.817 L 192.225 39.817 L 197.423 32.641 L 202.575 39.817 Z" style="fill: rgb(29, 29, 31);"/>
  </g>
</svg>