<?xml version="1.0" encoding="UTF-8"?>
<svg width="32" height="32" viewBox="0 0 32 32" xmlns="http://www.w3.org/2000/svg">
  <defs/>
  <g id="Head-Shading" transform="matrix(0.019511, 0, 0, 0.019511, 0.257745, 0.790094)" style="">
    <path id="Path" fill="#f05b29" stroke="none" d="M 569.134277 1103.685669 L 397.703339 966.601807 L 621.378784 1213.563721 L 698.547241 1313.401001 L 714.265076 1352.076904 L 802.622803 1435.793701 L 803.74292 1434.641235 L 804.608582 1435.53186 L 892.966614 1351.815186 L 908.235718 1314.242554 L 985.8526 1213.825317 L 1186.292969 992.5177 L 1047.27124 1103.685669 L 875.41925 1298.927734 C 879.617371 1305.570557 881.608521 1313.67688 881.608521 1323.324951 C 881.608521 1356.388306 831.500244 1402.440674 805.109802 1402.440674 C 778.719238 1402.440674 727.608643 1352.452148 727.608643 1323.324951 C 727.608643 1312.220825 730.552124 1302.527588 737.364502 1294.812988 L 569.134277 1103.685669 Z M 1379.697266 662.028503 L 1379.562012 661.508972 C 1379.647583 661.60968 1379.694946 661.683289 1379.702148 661.728516 C 1419.76062 482.776733 1282.483154 165.745239 1282.483154 165.745239 C 1216.340088 205.51062 979.828369 421.081177 979.828369 421.081177 C 933.870911 405.181641 855.554932 399.227051 781.341125 401.338257 C 727.461609 402.303955 675.453369 407.726318 639.116882 418.289185 C 635.738281 419.191284 632.456543 420.114624 629.388855 421.081177 C 629.388855 421.081177 392.877319 205.51062 326.734009 165.745239 C 326.734009 165.745239 189.436966 482.822144 229.523712 661.766968 C 229.523712 661.766968 265.402954 829.511719 212.892212 867.446716 C 212.798355 867.650513 314.911041 914.921631 358.013611 934.864136 L 261.600403 857.767822 C 261.600403 857.767822 321.731262 794.19696 381.298187 741.935242 C 457.479309 673.256653 491.249664 643.599182 604.862305 682.551208 C 727.754883 724.684692 734.508484 886.646301 734.598877 888.963135 C 752.944153 1015.37262 757.110352 1202.756348 758.056519 1281.57666 C 769.266602 1277.523193 783.962952 1275.304443 802.771301 1275.304443 C 827.319946 1275.304443 845.58374 1278.235596 858.316345 1284.371338 C 859.197144 1207.269531 863.240967 1016.8927 881.80658 888.963989 C 881.895325 886.687012 888.635254 724.690002 1011.543213 682.551208 C 1125.155884 643.599182 1158.92627 673.256592 1235.107178 741.935059 C 1294.674194 794.196777 1354.805176 857.767761 1354.805176 857.767761 L 1270.218018 925.40741 C 1318.773438 902.932434 1394.420044 867.883667 1394.339233 867.708313 C 1341.828369 829.77356 1379.697266 662.028503 1379.697266 662.028503 Z M 1379.702148 661.728516 C 1379.704834 661.745239 1379.701904 661.758057 1379.693481 661.766968 L 1379.702148 661.728516 Z M 296.951202 610.626221 C 293.431396 558.648926 314.471802 457.728516 333.029297 381.185059 C 338.588104 358.256958 343.926605 337.490356 348.312347 320.91394 C 354.776703 296.480713 359.180511 281.073486 359.187469 281.046021 C 459.608582 338.9823 547.170959 459.504395 547.170959 459.504395 C 532.323242 463.610352 517.999268 468.384155 504.202667 473.624268 C 483.368408 481.537109 463.811646 490.562622 445.626526 500.102539 C 353.212616 548.58374 296.951202 610.626221 296.951202 610.626221 Z M 1310.310791 610.626221 C 1310.310791 610.626221 1254.049438 548.58374 1161.63562 500.102539 C 1143.450439 490.562622 1123.893677 481.537109 1103.059448 473.624268 C 1089.262817 468.384155 1074.938721 463.610352 1060.091064 459.504395 C 1060.091064 459.504395 1147.653442 338.9823 1248.074585 281.046021 C 1248.081665 281.073486 1252.485352 296.480713 1258.949707 320.91394 C 1263.335449 337.490356 1268.673828 358.256958 1274.232788 381.185059 C 1292.790283 457.728516 1313.830688 558.648926 1310.310791 610.626221 Z"/>
    <path id="path1" fill="#f05b29" stroke="none" d="M 749.84552 1285.190308 C 734.027527 1293.605957 727.608643 1306.927246 727.608643 1323.324951 C 727.608643 1352.452148 778.719238 1402.440674 805.109802 1402.440674 C 831.500244 1402.440674 881.608521 1356.388306 881.608521 1323.324951 C 881.608521 1305.818481 875.052856 1293.388184 860.652161 1285.566406 C 882.09845 1141.151123 1007.026794 546.641968 1572.358032 972.25061 C 1570.574463 971.136841 1439.212158 958.460327 1424.36731 957.030823 C 1426.556885 959.850708 1463.444336 1007.657959 1477.200195 1045.462524 C 1477.183716 1045.462524 1477.04248 1045.445313 1476.780151 1045.413452 C 1476.563354 1045.387085 1476.263916 1045.350586 1475.883911 1045.305664 L 1475.941162 1045.462524 C 1475.924683 1045.462524 1475.783447 1045.445313 1475.521118 1045.413452 C 1472.108643 1044.998535 1448.203003 1042.092529 1411.745117 1042.059326 C 1289.355103 1042.170654 1028.719849 1074.837646 923.275635 1338.281982 C 892.734863 1424.311279 846.663086 1444.915039 816.979126 1448.479858 C 814.980347 1448.738525 812.647522 1448.950073 810.026489 1449.056396 C 809.625366 1449.07251 809.245728 1449.077271 808.853394 1449.088135 C 808.095825 1449.108032 807.335938 1449.125122 806.535461 1449.124756 C 806.398621 1449.124756 806.268555 1449.121826 806.137939 1449.119019 C 805.855164 1449.122803 805.568787 1449.125 805.276978 1449.124756 C 804.476501 1449.125122 803.716309 1449.108032 802.959045 1449.088135 C 802.566589 1449.077637 802.186951 1449.07251 801.785767 1449.056396 C 799.164673 1448.950073 796.832153 1448.738525 794.833374 1448.479858 C 765.14917 1444.915039 719.077576 1424.311279 688.536682 1338.281982 C 551.07251 994.837891 149.852966 1043.611816 135.032242 1045.413452 C 134.769775 1045.445313 134.62851 1045.462524 134.612045 1045.462524 C 145.246323 1016.236877 169.705002 981.033142 181.269669 965.257935 C 185.124542 959.999573 187.546768 956.899902 187.546768 956.899902 C 187.546768 956.899902 40.08596 971.070129 38.195442 972.25061 C 603.037109 547.010376 728.238464 1140.122437 749.84552 1285.190308 Z"/>
    <path id="path2" fill="none" stroke="#f05b29" stroke-width="51.874367" stroke-linecap="round" stroke-linejoin="round" d="M 1573.906982 970.789612 C 1505.752319 919.479553 1444.020264 883.04187 1388.076782 858.80835 C 1347.468872 810.327637 1381.24646 660.567322 1381.24646 660.567322 L 1381.111084 660.047546 C 1381.228271 660.185486 1381.273804 660.27301 1381.24231 660.305908 C 1421.328857 481.361206 1284.032104 164.284058 1284.032104 164.284058 C 1217.888916 204.049805 981.377197 419.620117 981.377197 419.620117 C 935.422546 403.721558 857.113281 397.766968 782.903259 399.876709 C 729.018372 400.841919 677.003479 406.264282 640.664001 416.828613 C 637.285706 417.730591 634.005066 418.653687 630.937927 419.620117 C 630.937927 419.620117 394.426147 204.049805 328.283051 164.284058 C 328.283051 164.284058 190.985794 481.361206 231.072754 660.305908 C 231.072754 660.305908 264.384003 816.148315 219.742508 861.354431 C 165.349319 885.570679 105.535294 921.258972 39.744167 970.789612 C 41.634766 969.608887 189.095901 955.438599 189.095901 955.438599 C 189.095901 955.438599 150.340195 1005.033997 136.161087 1044.001465 C 137.106461 1044.001465 550.186401 987.293701 690.085571 1336.820557 C 720.626526 1422.850098 766.697937 1443.454224 796.382324 1447.019043 C 798.381104 1447.277344 800.713379 1447.488892 803.334473 1447.595215 C 803.735657 1447.611694 804.115295 1447.616455 804.508057 1447.626953 C 805.265442 1447.647217 806.025146 1447.66394 806.825989 1447.663574 C 807.626221 1447.66394 808.385925 1447.647217 809.143188 1447.626953 C 809.535767 1447.616455 809.915344 1447.611694 810.316589 1447.595215 C 812.937622 1447.488892 815.269958 1447.277344 817.268921 1447.019043 C 846.953125 1443.454224 893.024719 1422.850098 923.565491 1336.820557 C 1063.4646 987.293701 1476.544678 1044.001465 1477.48999 1044.001465 C 1463.311279 1005.033997 1424.55542 955.438599 1424.55542 955.438599 C 1424.55542 955.438599 1572.016357 969.608887 1573.906982 970.789612 Z"/>
  </g>
</svg>